<svg width="25" height="25" viewBox="0 0 25 25" fill="none" xmlns="http://www.w3.org/2000/svg">
<path d="M17.7344 1.5625C16.4912 1.5625 15.2989 2.05636 14.4198 2.93544C13.5407 3.81451 13.0469 5.0068 13.0469 6.25C13.0478 6.44593 13.0609 6.64161 13.0859 6.83594C13.5156 10.7031 17.7344 15.7813 17.7344 15.7813C17.7344 15.7813 21.9531 10.7031 22.3828 6.83594C22.4079 6.64161 22.4209 6.44593 22.4219 6.25C22.4219 5.0068 21.928 3.81451 21.0489 2.93544C20.1699 2.05636 18.9776 1.5625 17.7344 1.5625ZM17.7344 7.42188C17.5026 7.42188 17.276 7.35315 17.0833 7.22438C16.8906 7.09561 16.7404 6.91259 16.6517 6.69846C16.563 6.48432 16.5398 6.2487 16.585 6.02138C16.6302 5.79406 16.7418 5.58525 16.9057 5.42136C17.0696 5.25747 17.2784 5.14586 17.5058 5.10064C17.7331 5.05543 17.9687 5.07863 18.1828 5.16733C18.397 5.25603 18.58 5.40623 18.7088 5.59894C18.8375 5.79166 18.9062 6.01823 18.9062 6.25C18.9062 6.5608 18.7828 6.85887 18.563 7.07864C18.3432 7.29841 18.0452 7.42188 17.7344 7.42188Z" fill="#FDC55E"/>
<path d="M9.14062 23.4375C10.0036 23.4375 10.7031 22.7379 10.7031 21.875C10.7031 21.0121 10.0036 20.3125 9.14062 20.3125C8.27768 20.3125 7.57812 21.0121 7.57812 21.875C7.57812 22.7379 8.27768 23.4375 9.14062 23.4375Z" fill="#FDC55E"/>
<path d="M19.2969 23.4375C20.1598 23.4375 20.8594 22.7379 20.8594 21.875C20.8594 21.0121 20.1598 20.3125 19.2969 20.3125C18.4339 20.3125 17.7344 21.0121 17.7344 21.875C17.7344 22.7379 18.4339 23.4375 19.2969 23.4375Z" fill="#FDC55E"/>
<path d="M18.9453 16.7582L17.7344 18.2035L16.5234 16.7582C16.3672 16.5629 13.3984 13.0082 12.1094 9.37539H7.5L6.01562 2.93008C5.97134 2.75819 5.86984 2.6065 5.72783 2.5C5.58583 2.3935 5.41179 2.33853 5.23438 2.34414H2.10938C1.90217 2.34414 1.70346 2.42645 1.55695 2.57296C1.41044 2.71948 1.32813 2.91819 1.32812 3.12539C1.32813 3.33259 1.41044 3.53131 1.55695 3.67782C1.70346 3.82433 1.90217 3.90664 2.10938 3.90664H4.60937L8.125 18.7504H21.0156L23.6328 9.33633H23.3594C22.0703 13.0082 19.1016 16.602 18.9453 16.7582Z" fill="#FDC55E"/>
</svg>
