<svg width="25" height="25" viewBox="0 0 25 25" fill="none" xmlns="http://www.w3.org/2000/svg">
<path d="M5.46875 22.2656C6.76317 22.2656 7.8125 21.2163 7.8125 19.9219C7.8125 18.6275 6.76317 17.5781 5.46875 17.5781C4.17433 17.5781 3.125 18.6275 3.125 19.9219C3.125 21.2163 4.17433 22.2656 5.46875 22.2656Z" fill="#FDC55E"/>
<path d="M19.5312 22.2656C20.8257 22.2656 21.875 21.2163 21.875 19.9219C21.875 18.6275 20.8257 17.5781 19.5312 17.5781C18.2368 17.5781 17.1875 18.6275 17.1875 19.9219C17.1875 21.2163 18.2368 22.2656 19.5312 22.2656Z" fill="#FDC55E"/>
<path d="M24.2188 13.6719L22.6562 12.1094L20.3125 7.42188H15.625V16.0156H24.2188V13.6719Z" fill="#FDC55E"/>
<path d="M0.78125 2.73438H14.0625V16.0156H0.78125V2.73438Z" fill="#FDC55E"/>
<path d="M0.78125 19.9219H1.5625C1.55965 19.0762 1.83408 18.2529 2.34375 17.5781H0.78125V19.9219ZM9.375 19.9219H15.625C15.6222 19.0762 15.8966 18.2529 16.4062 17.5781H8.59375C9.10342 18.2529 9.37785 19.0762 9.375 19.9219ZM23.4375 19.9219H24.2188V17.5781H22.6562C23.1659 18.2529 23.4403 19.0762 23.4375 19.9219Z" fill="#FDC55E"/>
</svg>
