<svg width="25" height="25" viewBox="0 0 25 25" fill="none" xmlns="http://www.w3.org/2000/svg">
<path d="M23.4375 10.9375H21.4844C21.478 8.97857 20.8055 7.08008 19.5774 5.55388C18.3494 4.02767 16.6387 2.96452 14.7266 2.53906C14.61 2.25103 14.4103 2.00428 14.1529 1.83033C13.8954 1.65638 13.592 1.56313 13.2812 1.5625H11.7188C11.408 1.56313 11.1046 1.65638 10.8471 1.83033C10.5897 2.00428 10.39 2.25103 10.2734 2.53906C8.36126 2.96452 6.65064 4.02767 5.42258 5.55388C4.19452 7.08008 3.52205 8.97857 3.51562 10.9375H1.5625C1.3553 10.9375 1.15659 11.0198 1.01007 11.1663C0.86356 11.3128 0.78125 11.5115 0.78125 11.7188C0.78125 11.926 0.86356 12.1247 1.01007 12.2712C1.15659 12.4177 1.3553 12.5 1.5625 12.5H23.4375C23.6447 12.5 23.8434 12.4177 23.9899 12.2712C24.1364 12.1247 24.2188 11.926 24.2188 11.7188C24.2188 11.5115 24.1364 11.3128 23.9899 11.1663C23.8434 11.0198 23.6447 10.9375 23.4375 10.9375ZM5.07812 10.9375C5.08049 9.35293 5.61802 7.81561 6.60357 6.57481C7.58912 5.33401 8.96489 4.46249 10.5078 4.10156C10.6533 4.28325 10.8375 4.43015 11.047 4.53152C11.2565 4.6329 11.486 4.68619 11.7188 4.6875H13.2812C13.514 4.68619 13.7435 4.6329 13.953 4.53152C14.1625 4.43015 14.3467 4.28325 14.4922 4.10156C16.0351 4.46249 17.4109 5.33401 18.3964 6.57481C19.382 7.81561 19.9195 9.35293 19.9219 10.9375H5.07812Z" fill="#686868"/>
<path d="M17.9688 20.3125C17.9688 20.5197 17.8864 20.7184 17.7399 20.8649C17.5934 21.0114 17.3947 21.0938 17.1875 21.0938C16.9803 21.0938 16.7816 21.0114 16.6351 20.8649C16.4886 20.7184 16.4062 20.5197 16.4062 20.3125V14.0625H13.2812V20.3125C13.2812 20.5197 13.1989 20.7184 13.0524 20.8649C12.9059 21.0114 12.7072 21.0938 12.5 21.0938C12.2928 21.0938 12.0941 21.0114 11.9476 20.8649C11.8011 20.7184 11.7188 20.5197 11.7188 20.3125V14.0625H8.59375V20.3125C8.59375 20.5197 8.51144 20.7184 8.36493 20.8649C8.21841 21.0114 8.0197 21.0938 7.8125 21.0938C7.6053 21.0938 7.40659 21.0114 7.26007 20.8649C7.11356 20.7184 7.03125 20.5197 7.03125 20.3125V14.0625H2.85156L4.6875 23.4375H20.3125L22.1875 14.0625H17.9688V20.3125Z" fill="#686868"/>
</svg>
